<svg id="Layer_1" data-name="Layer 1" xmlns="http://www.w3.org/2000/svg" xmlns:xlink="http://www.w3.org/1999/xlink" viewBox="0 0 163.8 48.2"><defs><style>.cls-1{fill:url(#linear-gradient);}.cls-2{fill:#0e4d67;}.cls-3{opacity:0.2;}.cls-4{fill:#231f20;}.cls-5{fill:none;stroke:#dc6126;stroke-miterlimit:10;stroke-width:0.25px;}.cls-6{opacity:0.3;}.cls-7{fill:#e2e4f2;}.cls-8{fill:#fff;}.cls-9{fill:#eaf2f4;}.cls-10{opacity:0.1;}.cls-11,.cls-12{fill:#edecea;}.cls-12{fill-opacity:0;}</style><linearGradient id="linear-gradient" x1="24.6" y1="2.2" x2="24.6" y2="50.2" gradientTransform="matrix(1, 0, 0, -1, 0, 50.2)" gradientUnits="userSpaceOnUse"><stop offset="0" stop-color="#097aad"/><stop offset="0.99" stop-color="#26ade4"/></linearGradient></defs><title>logo1</title><path class="cls-1" d="M43.5,0H5.7A5.36,5.36,0,0,0,.3,5.3V42.7A5.36,5.36,0,0,0,5.7,48H43.5a5.36,5.36,0,0,0,5.4-5.3V5.3A5.29,5.29,0,0,0,43.5,0Z" transform="translate(-0.3)"/><ellipse class="cls-2" cx="24.3" cy="18" rx="12.5" ry="12.1"/><g class="cls-3"><path class="cls-4" d="M24.8,3.8A14.56,14.56,0,0,0,10,18.2,14.62,14.62,0,0,0,24.8,32.6,14.56,14.56,0,0,0,39.6,18.2,14.56,14.56,0,0,0,24.8,3.8Zm0,26.5A12.3,12.3,0,0,1,12.3,18.2,12.3,12.3,0,0,1,24.8,6.1,12.3,12.3,0,0,1,37.3,18.2,12.36,12.36,0,0,1,24.8,30.3Z" transform="translate(-0.3)"/><path class="cls-4" d="M24.7,3.7A14.56,14.56,0,0,0,9.9,18.1,14.62,14.62,0,0,0,24.7,32.5,14.56,14.56,0,0,0,39.5,18.1,14.56,14.56,0,0,0,24.7,3.7Zm0,26.5A12.3,12.3,0,0,1,12.2,18.1,12.3,12.3,0,0,1,24.7,6,12.3,12.3,0,0,1,37.2,18.1,12.36,12.36,0,0,1,24.7,30.2Z" transform="translate(-0.3)"/><path class="cls-4" d="M24.6,3.6A14.56,14.56,0,0,0,9.8,18,14.62,14.62,0,0,0,24.6,32.4,14.56,14.56,0,0,0,39.4,18,14.56,14.56,0,0,0,24.6,3.6Zm0,26.5A12.3,12.3,0,0,1,12.1,18,12.3,12.3,0,0,1,24.6,5.9,12.3,12.3,0,0,1,37.1,18,12.36,12.36,0,0,1,24.6,30.1Z" transform="translate(-0.3)"/><path class="cls-5" d="M24.6,3.6A14.56,14.56,0,0,0,9.8,18,14.62,14.62,0,0,0,24.6,32.4,14.56,14.56,0,0,0,39.4,18,14.56,14.56,0,0,0,24.6,3.6Zm0,26.5A12.3,12.3,0,0,1,12.1,18,12.3,12.3,0,0,1,24.6,5.9,12.3,12.3,0,0,1,37.1,18,12.36,12.36,0,0,1,24.6,30.1Z" transform="translate(-0.3)"/></g><g class="cls-6"><path class="cls-4" d="M24.8,3.8A14.56,14.56,0,0,0,10,18.2,14.62,14.62,0,0,0,24.8,32.6,14.56,14.56,0,0,0,39.6,18.2,14.56,14.56,0,0,0,24.8,3.8Zm0,26.5A12.3,12.3,0,0,1,12.3,18.2,12.3,12.3,0,0,1,24.8,6.1,12.3,12.3,0,0,1,37.3,18.2,12.36,12.36,0,0,1,24.8,30.3Z" transform="translate(-0.3)"/><path class="cls-4" d="M24.7,3.7A14.56,14.56,0,0,0,9.9,18.1,14.62,14.62,0,0,0,24.7,32.5,14.56,14.56,0,0,0,39.5,18.1,14.56,14.56,0,0,0,24.7,3.7Zm0,26.5A12.3,12.3,0,0,1,12.2,18.1,12.3,12.3,0,0,1,24.7,6,12.3,12.3,0,0,1,37.2,18.1,12.36,12.36,0,0,1,24.7,30.2Z" transform="translate(-0.3)"/><path class="cls-4" d="M24.6,3.6A14.56,14.56,0,0,0,9.8,18,14.62,14.62,0,0,0,24.6,32.4,14.56,14.56,0,0,0,39.4,18,14.56,14.56,0,0,0,24.6,3.6Zm0,26.5A12.3,12.3,0,0,1,12.1,18,12.3,12.3,0,0,1,24.6,5.9,12.3,12.3,0,0,1,37.1,18,12.36,12.36,0,0,1,24.6,30.1Z" transform="translate(-0.3)"/></g><path class="cls-7" d="M24.6,3.6A14.6,14.6,0,0,0,9.9,18,14.6,14.6,0,0,0,24.6,32.4,14.53,14.53,0,0,0,39.3,18,14.6,14.6,0,0,0,24.6,3.6Zm0,26.5A12.1,12.1,0,1,1,36.9,18,12.19,12.19,0,0,1,24.6,30.1Z" transform="translate(-0.3)"/><g class="cls-3"><path d="M24.8,3.2a15.07,15.07,0,0,0-15.4,15c0,8.4,7,15,15.6,15a15,15,0,0,0,15.3-15A15.22,15.22,0,0,0,24.8,3.2Zm0,27.7A12.94,12.94,0,0,1,11.7,18.2,12.94,12.94,0,0,1,24.8,5.5,12.94,12.94,0,0,1,37.9,18.2,12.94,12.94,0,0,1,24.8,30.9Z" transform="translate(-0.3)"/><path d="M24.7,3.1a15.16,15.16,0,0,0-15.5,15c0,8.4,7,15,15.6,15a15,15,0,1,0-.1-30Zm0,27.7A12.94,12.94,0,0,1,11.6,18.1,12.94,12.94,0,0,1,24.7,5.4,12.94,12.94,0,0,1,37.8,18.1,12.94,12.94,0,0,1,24.7,30.8Z" transform="translate(-0.3)"/><path d="M24.6,3A15.07,15.07,0,0,0,9.2,18c0,8.4,7,15,15.6,15A15,15,0,0,0,40.1,18,15.22,15.22,0,0,0,24.6,3Zm0,27.7A12.94,12.94,0,0,1,11.5,18,12.94,12.94,0,0,1,24.6,5.3,12.94,12.94,0,0,1,37.7,18,12.94,12.94,0,0,1,24.6,30.7Z" transform="translate(-0.3)"/></g><path class="cls-7" d="M24.6,3A15.07,15.07,0,0,0,9.2,18c0,8.4,7,15,15.6,15A15,15,0,0,0,40.1,18,15.22,15.22,0,0,0,24.6,3Zm0,27.7A12.94,12.94,0,0,1,11.5,18,12.94,12.94,0,0,1,24.6,5.3,12.94,12.94,0,0,1,37.7,18,12.94,12.94,0,0,1,24.6,30.7Z" transform="translate(-0.3)"/><g class="cls-3"><path class="cls-4" d="M30.3,9.9v1c0,.2-.1.1-.2.1h-4a.1.1,0,0,0,.1.1,3.36,3.36,0,0,1,1.3,2,.27.27,0,0,0,.3.3h2.5v1a.35.35,0,0,1-.2.1H28c-.2,0-.3,0-.4.3a3.75,3.75,0,0,1-1.4,2.5,6.33,6.33,0,0,1-3.4,1.6h-.1c2,2.5,3.9,5,5.9,7.4h-2a.52.52,0,0,1-.4-.2l-5.5-7-.9-1.2c0-.1-.1-.1-.2-.2H21a4.81,4.81,0,0,0,2.4-.7,2.79,2.79,0,0,0,1.5-2.4v-.2H19.3V13.3h5.5c0-.2-.1-.3-.1-.4a3.32,3.32,0,0,0-1.5-1.6,3.44,3.44,0,0,0-2-.4H19.5c-.2,0-.2,0-.2-.2V9.8C22.9,9.9,26.6,9.9,30.3,9.9Z" transform="translate(-0.3)"/><path class="cls-4" d="M30.2,9.8v1c0,.2-.1.1-.2.1H26a.1.1,0,0,0,.1.1,3.36,3.36,0,0,1,1.3,2,.27.27,0,0,0,.3.3h2.5v1a.35.35,0,0,1-.2.1H27.9c-.2,0-.3,0-.4.3a3.75,3.75,0,0,1-1.4,2.5,6.33,6.33,0,0,1-3.4,1.6h-.1c2,2.5,3.9,5,5.9,7.4h-2a.52.52,0,0,1-.4-.2l-5.5-7-.9-1.2c0-.1-.1-.1-.2-.2h1.4a4.81,4.81,0,0,0,2.4-.7,2.79,2.79,0,0,0,1.5-2.4v-.2H19.2V13.2h5.5c0-.2-.1-.3-.1-.4a3.32,3.32,0,0,0-1.5-1.6,3.44,3.44,0,0,0-2-.4H19.4c-.2,0-.2,0-.2-.2V9.7C22.8,9.8,26.5,9.8,30.2,9.8Z" transform="translate(-0.3)"/><path class="cls-4" d="M30.1,9.7v1c0,.2-.1.1-.2.1h-4a.1.1,0,0,0,.1.1,3.36,3.36,0,0,1,1.3,2,.27.27,0,0,0,.3.3h2.5v1a.35.35,0,0,1-.2.1H27.8c-.2,0-.3,0-.4.3A3.75,3.75,0,0,1,26,17.1a6.33,6.33,0,0,1-3.4,1.6h-.1c2,2.5,3.9,5,5.9,7.4h-2a.52.52,0,0,1-.4-.2l-5.5-7-.9-1.2c0-.1-.1-.1-.2-.2h1.4a4.81,4.81,0,0,0,2.4-.7,2.79,2.79,0,0,0,1.5-2.4v-.2H19.1V13.1h5.5c0-.2-.1-.3-.1-.4A3.32,3.32,0,0,0,23,11.1a3.44,3.44,0,0,0-2-.4H19.3c-.2,0-.2,0-.2-.2V9.6C22.8,9.7,26.4,9.7,30.1,9.7Z" transform="translate(-0.3)"/></g><path class="cls-8" d="M30.1,9.7v1c0,.2-.1.1-.2.1h-4a.1.1,0,0,0,.1.1,3.36,3.36,0,0,1,1.3,2,.27.27,0,0,0,.3.3h2.5v1a.35.35,0,0,1-.2.1H27.8c-.2,0-.3,0-.4.3A3.75,3.75,0,0,1,26,17.1a6.33,6.33,0,0,1-3.4,1.6h-.1c2,2.5,3.9,5,5.9,7.4h-2a.52.52,0,0,1-.4-.2l-5.5-7-.9-1.2c0-.1-.1-.1-.2-.2h1.4a4.81,4.81,0,0,0,2.4-.7,2.79,2.79,0,0,0,1.5-2.4v-.2H19.1V13.1h5.5c0-.2-.1-.3-.1-.4A3.32,3.32,0,0,0,23,11.1a3.44,3.44,0,0,0-2-.4H19.3c-.2,0-.2,0-.2-.2V9.6C22.8,9.7,26.4,9.7,30.1,9.7Z" transform="translate(-0.3)"/><path class="cls-8" d="M30,9.6v1c0,.2-.1.1-.2.1h-4a.1.1,0,0,0,.1.1,3.36,3.36,0,0,1,1.3,2,.27.27,0,0,0,.3.3H30v1a.35.35,0,0,1-.2.1H27.7c-.2,0-.3,0-.4.3A3.75,3.75,0,0,1,25.9,17a6.33,6.33,0,0,1-3.4,1.6h-.1c2,2.5,3.9,5,5.9,7.4h-2a.52.52,0,0,1-.4-.2l-5.5-7-.9-1.2c0-.1-.1-.1-.2-.2h1.4a4.81,4.81,0,0,0,2.4-.7,2.79,2.79,0,0,0,1.5-2.4v-.2H19V13h5.5c0-.2-.1-.3-.1-.4A3.32,3.32,0,0,0,22.9,11a3.44,3.44,0,0,0-2-.4H19.2c-.2,0-.2,0-.2-.2V9.5C22.7,9.6,26.3,9.6,30,9.6Z" transform="translate(-0.3)"/><path class="cls-9" d="M30.1,9.7v1c0,.2-.1.1-.2.1h-4a.1.1,0,0,0,.1.1,3.36,3.36,0,0,1,1.3,2,.27.27,0,0,0,.3.3h2.5v1a.35.35,0,0,1-.2.1H27.8c-.2,0-.3,0-.4.3A3.75,3.75,0,0,1,26,17.1a6.33,6.33,0,0,1-3.4,1.6h-.1c2,2.5,3.9,5,5.9,7.4h-2a.52.52,0,0,1-.4-.2l-5.5-7-.9-1.2c0-.1-.1-.1-.2-.2h1.4a4.81,4.81,0,0,0,2.4-.7,2.79,2.79,0,0,0,1.5-2.4v-.2H19.1V13.1h5.5c0-.2-.1-.3-.1-.4A3.32,3.32,0,0,0,23,11.1a3.44,3.44,0,0,0-2-.4H19.3c-.2,0-.2,0-.2-.2V9.6C22.8,9.7,26.4,9.7,30.1,9.7Z" transform="translate(-0.3)"/><g class="cls-10"><path d="M5.8,47.9H43.4A5.16,5.16,0,0,0,48.8,43v-.1a5.16,5.16,0,0,1-5.4,4.9l-37.6.1a5.31,5.31,0,0,1-5.4-5v.2C.4,45.8,2.8,47.9,5.8,47.9Z" transform="translate(-0.3)"/><path d="M43.4,48.1H5.8a5.27,5.27,0,0,1-5.5-5V43H.6a5,5,0,0,0,5.2,4.7H43.4A5,5,0,0,0,48.6,43h.3v.1A5.33,5.33,0,0,1,43.4,48.1Z" transform="translate(-0.3)"/></g><g class="cls-3"><path class="cls-11" d="M10.2,32.3c-.9-1.2-1.7-2.4-2.5-3.6-.2-.3-.5-.9-.3-1.2s.9-.1,1.3,0a10.65,10.65,0,0,1,4,3.6,3.65,3.65,0,0,0,2.8,1.4c3.5.2,5.7,2.2,7.3,5.2.8,1.5.6,3,.5,4.5-.1,2.3,0,2.3-2.4,2.3H17.6c-.5,0-.8-.2-.8-.8v-1a3.87,3.87,0,0,0-2.2-3.4c-1.8-1.1-3.5-2.3-5.3-3.4C8,35.1,7.6,33.8,7,32.5S5.9,30,5.3,28.7a6.32,6.32,0,0,1-.9-3.5c.2-1.3.3-2.6.4-3.9,0-.3.2-.8.5-.8s.7.5.8.8c.3,1.6.5,3.2.7,4.9a.73.73,0,0,1-.2.6c-.6.4-.3,1,0,1.4.8,1.2,1.7,2.4,2.5,3.5a4.23,4.23,0,0,0,.7.5C10.1,32.4,10.1,32.3,10.2,32.3Z" transform="translate(-0.3)"/><path class="cls-11" d="M39.6,32.3c.9-1.2,1.7-2.4,2.5-3.6.2-.3.5-.9.3-1.2s-.9-.1-1.3,0a10.65,10.65,0,0,0-4,3.6,3.82,3.82,0,0,1-2.8,1.4c-3.5.2-5.7,2.2-7.3,5.2-.8,1.5-.6,3-.5,4.5.1,2.3,0,2.3,2.4,2.3h3.3c.5,0,.8-.2.8-.8v-1a3.87,3.87,0,0,1,2.2-3.4c1.8-1.1,3.5-2.3,5.3-3.4,1.3-.8,1.7-2.1,2.3-3.4s1.1-2.5,1.7-3.8a6,6,0,0,0,.4-3.5c-.2-1.3-.3-2.6-.4-3.9,0-.3-.2-.8-.5-.8s-.7.5-.8.8c-.3,1.6-.5,3.2-.7,4.9,0,.2.2.4.4.6a.94.94,0,0,1,.3,1.4c-.8,1.2-1.7,2.4-2.5,3.5a4.23,4.23,0,0,1-.7.5C39.7,32.4,39.7,32.3,39.6,32.3Z" transform="translate(-0.3)"/><path class="cls-4" d="M10.4,32.5c-.9-1.2-1.7-2.4-2.5-3.6-.2-.3-.5-.9-.3-1.2s.9-.1,1.3,0a10.65,10.65,0,0,1,4,3.6,3.65,3.65,0,0,0,2.8,1.4c3.5.2,5.7,2.2,7.3,5.2.8,1.5.6,3,.5,4.5-.1,2.3,0,2.3-2.4,2.3H17.8c-.5,0-.8-.2-.8-.8v-1a3.87,3.87,0,0,0-2.2-3.4c-1.8-1.1-3.5-2.3-5.3-3.4-1.1-.6-1.5-2-2.2-3.2s-1.1-2.5-1.7-3.8a6.32,6.32,0,0,1-.9-3.5c.3-1.2.3-2.5.5-3.8,0-.3.2-.8.5-.8s.7.5.8.8c.3,1.6.5,3.2.7,4.9a.73.73,0,0,1-.2.6c-.6.4-.3,1,0,1.4.8,1.2,1.7,2.4,2.5,3.5a4.23,4.23,0,0,0,.7.5C10.3,32.6,10.3,32.5,10.4,32.5Z" transform="translate(-0.3)"/><path class="cls-4" d="M39.8,32.5c.9-1.2,1.7-2.4,2.5-3.6.2-.3.5-.9.3-1.2s-.9-.1-1.3,0a10.65,10.65,0,0,0-4,3.6,3.82,3.82,0,0,1-2.8,1.4c-3.5.2-5.7,2.2-7.3,5.2-.8,1.5-.6,3-.5,4.5.1,2.3,0,2.3,2.4,2.3h3.3c.5,0,.8-.2.8-.8v-1a3.87,3.87,0,0,1,2.2-3.4c1.8-1.1,3.5-2.3,5.3-3.4,1.3-.8,1.7-2.1,2.3-3.4s1.1-2.5,1.7-3.8a6,6,0,0,0,.4-3.5c-.2-1.3-.3-2.6-.4-3.9,0-.3-.2-.8-.5-.8s-.7.5-.8.8c-.3,1.6-.5,3.2-.7,4.9,0,.2.2.4.4.6a.94.94,0,0,1,.3,1.4c-.8,1.2-1.7,2.4-2.5,3.5a4.23,4.23,0,0,1-.7.5C39.9,32.6,39.9,32.5,39.8,32.5Z" transform="translate(-0.3)"/><path class="cls-4" d="M10.3,32.4c-.9-1.2-1.7-2.4-2.5-3.6-.2-.3-.5-.9-.3-1.2s.9-.1,1.3,0a10.65,10.65,0,0,1,4,3.6,3.65,3.65,0,0,0,2.8,1.4c3.5.2,5.7,2.2,7.3,5.2.8,1.5.6,3,.5,4.5-.1,2.3,0,2.3-2.4,2.3H17.7c-.5,0-.8-.2-.8-.8v-1a3.87,3.87,0,0,0-2.2-3.4c-1.8-1.1-3.5-2.3-5.3-3.4-1.3-.8-1.7-2.1-2.3-3.4S6,30.1,5.4,28.8a6.32,6.32,0,0,1-.9-3.5c.2-1.3.3-2.6.4-3.9,0-.3.2-.8.5-.8s.7.5.8.8c.3,1.6.5,3.2.7,4.9a.73.73,0,0,1-.2.6c-.6.4-.3,1,0,1.4.8,1.2,1.7,2.4,2.5,3.5a4.23,4.23,0,0,0,.7.5C10.2,32.5,10.2,32.4,10.3,32.4Z" transform="translate(-0.3)"/><path class="cls-4" d="M39.7,32.4c.9-1.2,1.7-2.4,2.5-3.6.2-.3.5-.9.3-1.2s-.9-.1-1.3,0a10.65,10.65,0,0,0-4,3.6,3.82,3.82,0,0,1-2.8,1.4c-3.5.2-5.7,2.2-7.3,5.2-.8,1.5-.6,3-.5,4.5.1,2.3,0,2.3,2.4,2.3h3.3c.5,0,.8-.2.8-.8v-1a3.87,3.87,0,0,1,2.2-3.4c1.8-1.1,3.5-2.3,5.3-3.4,1.3-.8,1.7-2.1,2.3-3.4s1.1-2.5,1.7-3.8a6,6,0,0,0,.4-3.5c-.2-1.3-.3-2.6-.4-3.9,0-.3-.2-.8-.5-.8s-.7.5-.8.8c-.3,1.6-.5,3.2-.7,4.9,0,.2.2.4.4.6a.94.94,0,0,1,.3,1.4c-.8,1.2-1.7,2.4-2.5,3.5a4.23,4.23,0,0,1-.7.5C39.8,32.5,39.8,32.4,39.7,32.4Z" transform="translate(-0.3)"/><path class="cls-4" d="M10.2,32.3c-.9-1.2-1.7-2.4-2.5-3.6-.2-.3-.5-.9-.3-1.2s.9-.1,1.3,0a10.65,10.65,0,0,1,4,3.6,3.65,3.65,0,0,0,2.8,1.4c3.5.2,5.7,2.2,7.3,5.2.8,1.5.6,3,.5,4.5-.1,2.3,0,2.3-2.4,2.3H17.6c-.5,0-.8-.2-.8-.8v-1a3.87,3.87,0,0,0-2.2-3.4c-1.8-1.1-3.5-2.3-5.3-3.4C8,35.1,7.6,33.8,7,32.5S5.9,30,5.3,28.7a6.32,6.32,0,0,1-.9-3.5c.2-1.3.3-2.6.4-3.9,0-.3.2-.8.5-.8s.7.5.8.8c.3,1.6.5,3.2.7,4.9a.73.73,0,0,1-.2.6c-.6.4-.3,1,0,1.4.8,1.2,1.7,2.4,2.5,3.5a4.23,4.23,0,0,0,.7.5C10.1,32.4,10.1,32.3,10.2,32.3Z" transform="translate(-0.3)"/><path class="cls-4" d="M39.6,32.3c.9-1.2,1.7-2.4,2.5-3.6.2-.3.5-.9.3-1.2s-.9-.1-1.3,0a10.65,10.65,0,0,0-4,3.6,3.82,3.82,0,0,1-2.8,1.4c-3.5.2-5.7,2.2-7.3,5.2-.8,1.5-.6,3-.5,4.5.1,2.3,0,2.3,2.4,2.3h3.3c.5,0,.8-.2.8-.8v-1a3.87,3.87,0,0,1,2.2-3.4c1.8-1.1,3.5-2.3,5.3-3.4,1.3-.8,1.7-2.1,2.3-3.4s1.1-2.5,1.7-3.8a6,6,0,0,0,.4-3.5c-.2-1.3-.3-2.6-.4-3.9,0-.3-.2-.8-.5-.8s-.7.5-.8.8c-.3,1.6-.5,3.2-.7,4.9,0,.2.2.4.4.6a.94.94,0,0,1,.3,1.4c-.8,1.2-1.7,2.4-2.5,3.5a4.23,4.23,0,0,1-.7.5C39.7,32.4,39.7,32.3,39.6,32.3Z" transform="translate(-0.3)"/></g><path class="cls-11" d="M10.2,32.3c-.9-1.2-1.7-2.4-2.5-3.6-.2-.3-.5-.9-.3-1.2s.9-.1,1.3,0a10.65,10.65,0,0,1,4,3.6,3.65,3.65,0,0,0,2.8,1.4c3.5.2,5.7,2.2,7.3,5.2.8,1.5.6,3,.5,4.5-.1,2.3,0,2.3-2.4,2.3H17.6c-.5,0-.8-.2-.8-.8v-1a3.87,3.87,0,0,0-2.2-3.4c-1.8-1.1-3.5-2.3-5.3-3.4C8,35.1,7.6,33.8,7,32.5S5.9,30,5.3,28.7a6.32,6.32,0,0,1-.9-3.5c.2-1.3.3-2.6.4-3.9,0-.3.2-.8.5-.8s.7.5.8.8c.3,1.6.5,3.2.7,4.9a.73.73,0,0,1-.2.6c-.6.4-.3,1,0,1.4.8,1.2,1.7,2.4,2.5,3.5a4.23,4.23,0,0,0,.7.5C10.1,32.4,10.1,32.3,10.2,32.3Z" transform="translate(-0.3)"/><path class="cls-11" d="M39.6,32.3c.9-1.2,1.7-2.4,2.5-3.6.2-.3.5-.9.3-1.2s-.9-.1-1.3,0a10.65,10.65,0,0,0-4,3.6,3.82,3.82,0,0,1-2.8,1.4c-3.5.2-5.7,2.2-7.3,5.2-.8,1.5-.6,3-.5,4.5.1,2.3,0,2.3,2.4,2.3h3.3c.5,0,.8-.2.8-.8v-1a3.87,3.87,0,0,1,2.2-3.4c1.8-1.1,3.5-2.3,5.3-3.4,1.3-.8,1.7-2.1,2.3-3.4s1.1-2.5,1.7-3.8a6,6,0,0,0,.4-3.5c-.2-1.3-.3-2.6-.4-3.9,0-.3-.2-.8-.5-.8s-.7.5-.8.8c-.3,1.6-.5,3.2-.7,4.9,0,.2.2.4.4.6a.94.94,0,0,1,.3,1.4c-.8,1.2-1.7,2.4-2.5,3.5a4.23,4.23,0,0,1-.7.5C39.7,32.4,39.7,32.3,39.6,32.3Z" transform="translate(-0.3)"/><rect class="cls-12" x="22.2" y="45.8" width="4.1" height="1.9"/><path id="logo-bg" class="cls-8" d="M59.1.1H160a4.14,4.14,0,0,1,4.1,4.2V44a4.14,4.14,0,0,1-4.1,4.2H59.1A4.14,4.14,0,0,1,55,44V4.3A4.14,4.14,0,0,1,59.1.1Z" transform="translate(-0.3)"/><path class="cls-2" d="M70.5,16.1l4.2,12.1,4.2-12.1h3.2L76,32.1H73.4l-6.1-16Z" transform="translate(-0.3)"/><path class="cls-2" d="M85.5,16.1l3.9,7.7,3.9-7.7h3.3L90.9,26.5v5.6h-3V26.5L82.2,16.1Z" transform="translate(-0.3)"/><path class="cls-2" d="M100.9,16.1h2.7l5.9,16h-3.1l-1.5-4H99.4l-1.4,4H94.9Zm3.5,9.8-2.2-6.3L100,25.9Z" transform="translate(-0.3)"/><path class="cls-2" d="M111.2,32.1v-16h6.6a4.55,4.55,0,0,1,2,.5,6.1,6.1,0,0,1,1.6,1.2,5.85,5.85,0,0,1,1,1.7,6.46,6.46,0,0,1,.4,1.9,4.77,4.77,0,0,1-.4,2,5.85,5.85,0,0,1-1,1.7,4.43,4.43,0,0,1-1.5,1.2,4.55,4.55,0,0,1-2,.5h-3.7v5.3Zm3.1-8.1h3.5a1.62,1.62,0,0,0,1.4-.7,2.88,2.88,0,0,0,.6-1.9,3.59,3.59,0,0,0-.2-1.1,2.18,2.18,0,0,0-.5-.8,1.79,1.79,0,0,0-.7-.5,2.35,2.35,0,0,0-.8-.2h-3.4V24Z" transform="translate(-0.3)"/><path class="cls-2" d="M128.4,16.1h2.7l5.9,16h-3.1l-1.5-4H127l-1.4,4h-3.1Zm3.5,9.8-2.2-6.3-2.2,6.3Z" transform="translate(-0.3)"/><path class="cls-2" d="M138.7,32.1v-16h6.9a4.55,4.55,0,0,1,2,.5,6.1,6.1,0,0,1,1.6,1.2,5.85,5.85,0,0,1,1,1.7,6.46,6.46,0,0,1,.4,1.9,5.38,5.38,0,0,1-.8,2.8,4.1,4.1,0,0,1-2.1,1.8l3.6,6h-3.4l-3.2-5.4h-3v5.5Zm3.1-8.1h3.8a2.35,2.35,0,0,0,.8-.2,1.17,1.17,0,0,0,.6-.6,2,2,0,0,0,.4-.8,3.55,3.55,0,0,0,.2-1,3,3,0,0,0-.2-1,2.18,2.18,0,0,0-.5-.8,1.79,1.79,0,0,0-.7-.5,2.35,2.35,0,0,0-.8-.2h-3.7V24Z" transform="translate(-0.3)"/></svg>